# MagicaVoxel @ Ephtracy

# group
g Eindecker_Yellow-0

# material
mtllib Eindecker_Yellow-0.mtl
usemtl palette

# normals
vn -1 0 0
vn 1 0 0
vn 0 0 1
vn 0 0 -1
vn 0 -1 0
vn 0 1 0

# texcoords
vt 0.0371094 0.5
vt 0.958984 0.5
vt 0.970703 0.5
vt 0.994141 0.5

# verts
v -16.5 6 9
v -16.5 6 4
v -16.5 7 9
v -16.5 7 4
v -15.5 5 10
v -15.5 5 9
v -15.5 5 4
v -15.5 5 3
v -15.5 6 10
v -15.5 6 9
v -15.5 6 4
v -15.5 6 3
v -14.5 5 11
v -14.5 5 10
v -14.5 5 3
v -14.5 5 2
v -14.5 6 11
v -14.5 6 10
v -14.5 6 3
v -14.5 6 2
v -5.5 6 -16
v -5.5 6 -18
v -5.5 7 -16
v -5.5 7 -18
v -4.5 3 12
v -4.5 3 7
v -4.5 3 1
v -4.5 5 16
v -4.5 5 12
v -4.5 5 11
v -4.5 5 9
v -4.5 5 4
v -4.5 5 2
v -4.5 6 11
v -4.5 6 9
v -4.5 6 7
v -4.5 6 4
v -4.5 6 2
v -4.5 6 -15
v -4.5 6 -16
v -4.5 6 -18
v -4.5 6 -19
v -4.5 7 9
v -4.5 7 7
v -4.5 7 4
v -4.5 7 -15
v -4.5 7 -16
v -4.5 7 -18
v -4.5 7 -19
v -4.5 9 16
v -4.5 9 7
v -4.5 9 1
v -3.5 3 13
v -3.5 3 12
v -3.5 4 1
v -3.5 4 -6
v -3.5 5 13
v -3.5 5 12
v -3.5 9 15
v -3.5 9 8
v -3.5 9 1
v -3.5 9 -6
v -3.5 10 15
v -3.5 10 8
v -2.5 4 16
v -2.5 4 13
v -2.5 5 16
v -2.5 5 13
v -2.5 5 -6
v -2.5 5 -14
v -2.5 6 17
v -2.5 6 16
v -2.5 8 -6
v -2.5 8 -14
v -2.5 9 17
v -2.5 9 16
v -2.5 9 8
v -2.5 9 7
v -2.5 10 8
v -2.5 10 7
v -1.5 9 16
v -1.5 9 15
v -1.5 10 16
v -1.5 10 15
v -1.5 10 14
v -1.5 10 8
v -1.5 11 14
v -1.5 11 8
v -0.5 6 -14
v -0.5 6 -15
v -0.5 7 -14
v -0.5 7 -15
v -0.5 7 -19
v -0.5 8 -14
v -0.5 8 -15
v -0.5 10 -18
v -0.5 10 -19
v -0.5 11 -17
v -0.5 11 -18
v -0.5 12 -14
v -0.5 12 -17
v 0.5 6 -14
v 0.5 6 -15
v 0.5 7 -14
v 0.5 7 -15
v 0.5 7 -19
v 0.5 8 -14
v 0.5 8 -15
v 0.5 10 -18
v 0.5 10 -19
v 0.5 11 -17
v 0.5 11 -18
v 0.5 12 -14
v 0.5 12 -17
v 1.5 9 16
v 1.5 9 15
v 1.5 10 16
v 1.5 10 15
v 1.5 10 14
v 1.5 10 8
v 1.5 11 14
v 1.5 11 8
v 2.5 4 16
v 2.5 4 13
v 2.5 5 16
v 2.5 5 13
v 2.5 5 -6
v 2.5 5 -14
v 2.5 6 17
v 2.5 6 16
v 2.5 8 -6
v 2.5 8 -14
v 2.5 9 17
v 2.5 9 16
v 2.5 9 8
v 2.5 9 7
v 2.5 10 8
v 2.5 10 7
v 3.5 3 13
v 3.5 3 12
v 3.5 4 1
v 3.5 4 -1
v 3.5 4 -4
v 3.5 4 -6
v 3.5 5 13
v 3.5 5 12
v 3.5 5 -0
v 3.5 5 -1
v 3.5 5 -2
v 3.5 5 -3
v 3.5 5 -4
v 3.5 5 -5
v 3.5 6 -1
v 3.5 6 -2
v 3.5 6 -3
v 3.5 6 -4
v 3.5 7 -1
v 3.5 7 -2
v 3.5 7 -3
v 3.5 7 -4
v 3.5 8 -0
v 3.5 8 -1
v 3.5 8 -2
v 3.5 8 -3
v 3.5 8 -4
v 3.5 8 -5
v 3.5 9 15
v 3.5 9 8
v 3.5 9 1
v 3.5 9 -1
v 3.5 9 -4
v 3.5 9 -6
v 3.5 10 15
v 3.5 10 8
v 4.5 3 12
v 4.5 3 7
v 4.5 3 1
v 4.5 5 16
v 4.5 5 12
v 4.5 5 11
v 4.5 5 9
v 4.5 5 4
v 4.5 5 2
v 4.5 6 11
v 4.5 6 9
v 4.5 6 7
v 4.5 6 4
v 4.5 6 2
v 4.5 6 -15
v 4.5 6 -16
v 4.5 6 -18
v 4.5 6 -19
v 4.5 7 9
v 4.5 7 7
v 4.5 7 4
v 4.5 7 -15
v 4.5 7 -16
v 4.5 7 -18
v 4.5 7 -19
v 4.5 9 16
v 4.5 9 7
v 4.5 9 1
v 5.5 6 -16
v 5.5 6 -18
v 5.5 7 -16
v 5.5 7 -18
v 14.5 5 11
v 14.5 5 10
v 14.5 5 3
v 14.5 5 2
v 14.5 6 11
v 14.5 6 10
v 14.5 6 3
v 14.5 6 2
v 15.5 5 10
v 15.5 5 9
v 15.5 5 4
v 15.5 5 3
v 15.5 6 10
v 15.5 6 9
v 15.5 6 4
v 15.5 6 3
v 16.5 6 9
v 16.5 6 4
v 16.5 7 9
v 16.5 7 4
v -2.5 6 17
v -2.5 9 17
v 2.5 6 17
v 2.5 9 17
v -4.5 5 16
v -4.5 9 16
v -2.5 4 16
v -2.5 5 16
v -2.5 6 16
v -2.5 9 16
v -1.5 9 16
v -1.5 10 16
v 1.5 9 16
v 1.5 10 16
v 2.5 4 16
v 2.5 5 16
v 2.5 6 16
v 2.5 9 16
v 4.5 5 16
v 4.5 9 16
v -3.5 9 15
v -3.5 10 15
v -1.5 9 15
v -1.5 10 15
v 1.5 9 15
v 1.5 10 15
v 3.5 9 15
v 3.5 10 15
v -1.5 10 14
v -1.5 11 14
v 1.5 10 14
v 1.5 11 14
v -3.5 3 13
v -3.5 5 13
v -2.5 4 13
v -2.5 5 13
v 2.5 4 13
v 2.5 5 13
v 3.5 3 13
v 3.5 5 13
v -4.5 3 12
v -4.5 5 12
v -3.5 3 12
v -3.5 5 12
v 3.5 3 12
v 3.5 5 12
v 4.5 3 12
v 4.5 5 12
v -14.5 5 11
v -14.5 6 11
v -4.5 5 11
v -4.5 6 11
v 4.5 5 11
v 4.5 6 11
v 14.5 5 11
v 14.5 6 11
v -15.5 5 10
v -15.5 6 10
v -14.5 5 10
v -14.5 6 10
v 14.5 5 10
v 14.5 6 10
v 15.5 5 10
v 15.5 6 10
v -16.5 6 9
v -16.5 7 9
v -15.5 6 9
v -4.5 6 9
v -4.5 7 9
v 4.5 6 9
v 4.5 7 9
v 15.5 6 9
v 16.5 6 9
v 16.5 7 9
v -15.5 5 4
v -15.5 6 4
v -4.5 5 4
v -4.5 6 4
v 4.5 5 4
v 4.5 6 4
v 15.5 5 4
v 15.5 6 4
v -0.5 8 -14
v -0.5 12 -14
v 0.5 8 -14
v 0.5 12 -14
v -4.5 6 -15
v -4.5 7 -15
v -0.5 6 -15
v -0.5 7 -15
v -0.5 8 -15
v 0.5 6 -15
v 0.5 7 -15
v 0.5 8 -15
v 4.5 6 -15
v 4.5 7 -15
v -5.5 6 -16
v -5.5 7 -16
v -4.5 6 -16
v -4.5 7 -16
v 4.5 6 -16
v 4.5 7 -16
v 5.5 6 -16
v 5.5 7 -16
v -15.5 5 9
v -15.5 6 9
v -4.5 5 9
v -4.5 6 9
v 4.5 5 9
v 4.5 6 9
v 15.5 5 9
v 15.5 6 9
v -3.5 9 8
v -3.5 10 8
v -2.5 9 8
v -2.5 10 8
v -1.5 10 8
v -1.5 11 8
v 1.5 10 8
v 1.5 11 8
v 2.5 9 8
v 2.5 10 8
v 3.5 9 8
v 3.5 10 8
v -2.5 9 7
v -2.5 10 7
v 2.5 9 7
v 2.5 10 7
v -16.5 6 4
v -16.5 7 4
v -15.5 6 4
v -4.5 6 4
v -4.5 7 4
v 4.5 6 4
v 4.5 7 4
v 15.5 6 4
v 16.5 6 4
v 16.5 7 4
v -15.5 5 3
v -15.5 6 3
v -14.5 5 3
v -14.5 6 3
v 14.5 5 3
v 14.5 6 3
v 15.5 5 3
v 15.5 6 3
v -14.5 5 2
v -14.5 6 2
v -4.5 5 2
v -4.5 6 2
v 4.5 5 2
v 4.5 6 2
v 14.5 5 2
v 14.5 6 2
v -4.5 3 1
v -4.5 9 1
v -3.5 4 1
v -3.5 9 1
v 2.5 4 1
v 3.5 4 1
v 3.5 9 1
v 4.5 3 1
v 4.5 9 1
v -3.5 4 -6
v -3.5 9 -6
v -2.5 5 -6
v -2.5 8 -6
v 2.5 4 -6
v 2.5 5 -6
v 2.5 8 -6
v 2.5 9 -6
v 3.5 4 -6
v 3.5 9 -6
v -2.5 5 -14
v -2.5 8 -14
v -0.5 6 -14
v -0.5 7 -14
v -0.5 8 -14
v 0.5 6 -14
v 0.5 7 -14
v 0.5 8 -14
v 2.5 5 -14
v 2.5 8 -14
v -0.5 11 -17
v -0.5 12 -17
v 0.5 11 -17
v 0.5 12 -17
v -5.5 6 -18
v -5.5 7 -18
v -4.5 6 -18
v -4.5 7 -18
v -0.5 10 -18
v -0.5 11 -18
v 0.5 10 -18
v 0.5 11 -18
v 4.5 6 -18
v 4.5 7 -18
v 5.5 6 -18
v 5.5 7 -18
v -4.5 6 -19
v -4.5 7 -19
v -0.5 6 -19
v -0.5 7 -19
v -0.5 10 -19
v 0.5 6 -19
v 0.5 7 -19
v 0.5 10 -19
v 4.5 6 -19
v 4.5 7 -19
v -3.5 3 13
v 3.5 3 13
v -4.5 3 12
v -3.5 3 12
v 3.5 3 12
v 4.5 3 12
v -4.5 3 7
v 4.5 3 7
v -4.5 3 1
v 4.5 3 1
v -2.5 4 16
v 2.5 4 16
v -2.5 4 13
v 2.5 4 13
v -3.5 4 1
v 2.5 4 1
v 3.5 4 1
v 2.5 4 -1
v 3.5 4 -1
v 2.5 4 -4
v 3.5 4 -4
v -3.5 4 -6
v 2.5 4 -6
v 3.5 4 -6
v -4.5 5 16
v -2.5 5 16
v 2.5 5 16
v 4.5 5 16
v -3.5 5 13
v -2.5 5 13
v 2.5 5 13
v 3.5 5 13
v -4.5 5 12
v -3.5 5 12
v 3.5 5 12
v 4.5 5 12
v -14.5 5 11
v -4.5 5 11
v 4.5 5 11
v 14.5 5 11
v -15.5 5 10
v -14.5 5 10
v 14.5 5 10
v 15.5 5 10
v -15.5 5 9
v -4.5 5 9
v 4.5 5 9
v 15.5 5 9
v -15.5 5 4
v -4.5 5 4
v 4.5 5 4
v 15.5 5 4
v -15.5 5 3
v -14.5 5 3
v 14.5 5 3
v 15.5 5 3
v -14.5 5 2
v -4.5 5 2
v 4.5 5 2
v 14.5 5 2
v -2.5 5 -6
v 2.5 5 -6
v -2.5 5 -14
v 2.5 5 -14
v -2.5 6 17
v 2.5 6 17
v -2.5 6 16
v 2.5 6 16
v -16.5 6 9
v -15.5 6 9
v -4.5 6 9
v 4.5 6 9
v 15.5 6 9
v 16.5 6 9
v -4.5 6 7
v 4.5 6 7
v -16.5 6 4
v -15.5 6 4
v -4.5 6 4
v 4.5 6 4
v 15.5 6 4
v 16.5 6 4
v -0.5 6 -14
v 0.5 6 -14
v -4.5 6 -15
v -0.5 6 -15
v 0.5 6 -15
v 4.5 6 -15
v -5.5 6 -16
v -4.5 6 -16
v 4.5 6 -16
v 5.5 6 -16
v -5.5 6 -18
v -4.5 6 -18
v 4.5 6 -18
v 5.5 6 -18
v -4.5 6 -19
v -0.5 6 -19
v 0.5 6 -19
v 4.5 6 -19
v -0.5 8 -14
v 0.5 8 -14
v -0.5 8 -15
v 0.5 8 -15
v -14.5 6 11
v -4.5 6 11
v 4.5 6 11
v 14.5 6 11
v -15.5 6 10
v -14.5 6 10
v 14.5 6 10
v 15.5 6 10
v -15.5 6 9
v -4.5 6 9
v 4.5 6 9
v 15.5 6 9
v -15.5 6 4
v -4.5 6 4
v 4.5 6 4
v 15.5 6 4
v -15.5 6 3
v -14.5 6 3
v 14.5 6 3
v 15.5 6 3
v -14.5 6 2
v -4.5 6 2
v 4.5 6 2
v 14.5 6 2
v -16.5 7 9
v -4.5 7 9
v 4.5 7 9
v 16.5 7 9
v -4.5 7 7
v 4.5 7 7
v -16.5 7 4
v -4.5 7 4
v 4.5 7 4
v 16.5 7 4
v -0.5 7 -14
v 0.5 7 -14
v -4.5 7 -15
v -0.5 7 -15
v 0.5 7 -15
v 4.5 7 -15
v -5.5 7 -16
v -4.5 7 -16
v 4.5 7 -16
v 5.5 7 -16
v -5.5 7 -18
v -4.5 7 -18
v 4.5 7 -18
v 5.5 7 -18
v -4.5 7 -19
v -0.5 7 -19
v 0.5 7 -19
v 4.5 7 -19
v -2.5 8 -6
v 2.5 8 -6
v -2.5 8 -14
v -0.5 8 -14
v 0.5 8 -14
v 2.5 8 -14
v -2.5 9 17
v 2.5 9 17
v -4.5 9 16
v -2.5 9 16
v -1.5 9 16
v 1.5 9 16
v 2.5 9 16
v 4.5 9 16
v -3.5 9 15
v -1.5 9 15
v 1.5 9 15
v 3.5 9 15
v -3.5 9 8
v -2.5 9 8
v 2.5 9 8
v 3.5 9 8
v -4.5 9 7
v -2.5 9 7
v 2.5 9 7
v 4.5 9 7
v -4.5 9 1
v -3.5 9 1
v 2.5 9 1
v 3.5 9 1
v 4.5 9 1
v 2.5 9 -1
v 3.5 9 -1
v 2.5 9 -4
v 3.5 9 -4
v -3.5 9 -6
v 2.5 9 -6
v 3.5 9 -6
v -1.5 10 16
v 1.5 10 16
v -3.5 10 15
v -1.5 10 15
v 1.5 10 15
v 3.5 10 15
v -1.5 10 14
v 1.5 10 14
v -3.5 10 8
v -2.5 10 8
v -1.5 10 8
v 1.5 10 8
v 2.5 10 8
v 3.5 10 8
v -2.5 10 7
v 2.5 10 7
v -0.5 10 -18
v 0.5 10 -18
v -0.5 10 -19
v 0.5 10 -19
v -1.5 11 14
v 1.5 11 14
v -1.5 11 8
v 1.5 11 8
v -0.5 11 -17
v 0.5 11 -17
v -0.5 11 -18
v 0.5 11 -18
v -0.5 12 -14
v 0.5 12 -14
v -0.5 12 -17
v 0.5 12 -17

# faces
f 3/1/1 2/1/1 1/1/1
f 4/1/1 2/1/1 3/1/1
f 9/1/1 6/1/1 5/1/1
f 10/1/1 6/1/1 9/1/1
f 11/1/1 8/1/1 7/1/1
f 12/1/1 8/1/1 11/1/1
f 17/1/1 14/1/1 13/1/1
f 18/1/1 14/1/1 17/1/1
f 19/1/1 16/1/1 15/1/1
f 20/1/1 16/1/1 19/1/1
f 23/2/1 22/2/1 21/2/1
f 24/2/1 22/2/1 23/2/1
f 29/3/1 26/3/1 25/3/1
f 30/3/1 26/3/1 29/3/1
f 31/3/1 26/3/1 30/3/1
f 32/1/1 27/1/1 26/1/1
f 33/1/1 27/1/1 32/1/1
f 34/3/1 29/3/1 28/3/1
f 34/3/1 30/3/1 29/3/1
f 35/3/1 26/3/1 31/3/1
f 36/1/1 32/1/1 26/1/1
f 36/3/1 26/3/1 35/3/1
f 37/1/1 32/1/1 36/1/1
f 38/1/1 27/1/1 33/1/1
f 43/3/1 35/3/1 34/3/1
f 45/1/1 38/1/1 37/1/1
f 46/2/1 40/2/1 39/2/1
f 47/2/1 40/2/1 46/2/1
f 48/2/1 42/2/1 41/2/1
f 49/2/1 42/2/1 48/2/1
f 50/3/1 34/3/1 28/3/1
f 50/3/1 44/3/1 43/3/1
f 50/3/1 43/3/1 34/3/1
f 51/1/1 45/1/1 44/1/1
f 51/3/1 44/3/1 50/3/1
f 52/1/1 27/1/1 38/1/1
f 52/1/1 45/1/1 51/1/1
f 52/1/1 38/1/1 45/1/1
f 57/3/1 54/3/1 53/3/1
f 58/3/1 54/3/1 57/3/1
f 61/1/1 56/1/1 55/1/1
f 62/1/1 56/1/1 61/1/1
f 63/3/1 60/3/1 59/3/1
f 64/3/1 60/3/1 63/3/1
f 67/3/1 66/3/1 65/3/1
f 68/3/1 66/3/1 67/3/1
f 73/1/1 70/1/1 69/1/1
f 74/1/1 70/1/1 73/1/1
f 75/3/1 72/3/1 71/3/1
f 76/3/1 72/3/1 75/3/1
f 79/3/1 78/3/1 77/3/1
f 80/3/1 78/3/1 79/3/1
f 83/3/1 82/3/1 81/3/1
f 84/3/1 82/3/1 83/3/1
f 87/4/1 86/4/1 85/4/1
f 88/4/1 86/4/1 87/4/1
f 91/1/1 90/1/1 89/1/1
f 92/1/1 90/1/1 91/1/1
f 95/2/1 93/2/1 92/2/1
f 96/2/1 93/2/1 95/2/1
f 96/2/1 95/2/1 94/2/1
f 97/2/1 93/2/1 96/2/1
f 98/2/1 96/2/1 94/2/1
f 99/2/1 96/2/1 98/2/1
f 100/2/1 98/2/1 94/2/1
f 101/2/1 98/2/1 100/2/1
f 102/1/2 103/1/2 104/1/2
f 104/1/2 103/1/2 105/1/2
f 105/2/2 106/2/2 108/2/2
f 108/2/2 106/2/2 109/2/2
f 107/2/2 108/2/2 109/2/2
f 109/2/2 106/2/2 110/2/2
f 107/2/2 109/2/2 111/2/2
f 111/2/2 109/2/2 112/2/2
f 107/2/2 111/2/2 113/2/2
f 113/2/2 111/2/2 114/2/2
f 115/3/2 116/3/2 117/3/2
f 117/3/2 116/3/2 118/3/2
f 119/4/2 120/4/2 121/4/2
f 121/4/2 120/4/2 122/4/2
f 123/3/2 124/3/2 125/3/2
f 125/3/2 124/3/2 126/3/2
f 127/1/2 128/1/2 131/1/2
f 131/1/2 128/1/2 132/1/2
f 129/3/2 130/3/2 133/3/2
f 133/3/2 130/3/2 134/3/2
f 135/3/2 136/3/2 137/3/2
f 137/3/2 136/3/2 138/3/2
f 139/3/2 140/3/2 145/3/2
f 145/3/2 140/3/2 146/3/2
f 141/2/2 142/2/2 147/2/2
f 142/4/2 143/4/2 148/4/2
f 147/2/2 142/2/2 148/2/2
f 148/4/2 143/4/2 149/4/2
f 149/4/2 143/4/2 150/4/2
f 143/2/2 144/2/2 151/2/2
f 150/4/2 143/4/2 151/4/2
f 151/2/2 144/2/2 152/2/2
f 147/4/2 148/4/2 153/4/2
f 148/2/2 149/2/2 153/2/2
f 149/4/2 150/4/2 154/4/2
f 153/2/2 149/2/2 154/2/2
f 150/2/2 151/2/2 155/2/2
f 154/4/2 150/4/2 155/4/2
f 151/4/2 152/4/2 156/4/2
f 155/2/2 151/2/2 156/2/2
f 147/4/2 153/4/2 157/4/2
f 154/4/2 155/4/2 157/4/2
f 155/4/2 156/4/2 157/4/2
f 153/4/2 154/4/2 157/4/2
f 157/4/2 156/4/2 158/4/2
f 158/4/2 156/4/2 159/4/2
f 156/4/2 152/4/2 160/4/2
f 159/4/2 156/4/2 160/4/2
f 141/2/2 147/2/2 161/2/2
f 147/4/2 157/4/2 161/4/2
f 157/2/2 158/2/2 162/2/2
f 161/4/2 157/4/2 162/4/2
f 158/4/2 159/4/2 163/4/2
f 162/2/2 158/2/2 163/2/2
f 159/2/2 160/2/2 164/2/2
f 163/4/2 159/4/2 164/4/2
f 160/4/2 152/4/2 165/4/2
f 164/2/2 160/2/2 165/2/2
f 152/2/2 144/2/2 166/2/2
f 165/4/2 152/4/2 166/4/2
f 161/2/2 162/2/2 169/2/2
f 141/2/2 161/2/2 169/2/2
f 164/4/2 165/4/2 170/4/2
f 169/2/2 162/2/2 170/2/2
f 163/4/2 164/4/2 170/4/2
f 162/4/2 163/4/2 170/4/2
f 165/2/2 166/2/2 171/2/2
f 170/4/2 165/4/2 171/4/2
f 166/2/2 144/2/2 172/2/2
f 171/2/2 166/2/2 172/2/2
f 167/3/2 168/3/2 173/3/2
f 173/3/2 168/3/2 174/3/2
f 175/3/2 176/3/2 179/3/2
f 179/3/2 176/3/2 180/3/2
f 180/3/2 176/3/2 181/3/2
f 176/1/2 177/1/2 182/1/2
f 182/1/2 177/1/2 183/1/2
f 178/3/2 179/3/2 184/3/2
f 179/3/2 180/3/2 184/3/2
f 181/3/2 176/3/2 185/3/2
f 176/1/2 182/1/2 186/1/2
f 185/3/2 176/3/2 186/3/2
f 186/1/2 182/1/2 187/1/2
f 183/1/2 177/1/2 188/1/2
f 184/3/2 185/3/2 193/3/2
f 187/1/2 188/1/2 195/1/2
f 189/2/2 190/2/2 196/2/2
f 196/2/2 190/2/2 197/2/2
f 191/2/2 192/2/2 198/2/2
f 198/2/2 192/2/2 199/2/2
f 178/3/2 184/3/2 200/3/2
f 193/3/2 194/3/2 200/3/2
f 184/3/2 193/3/2 200/3/2
f 194/1/2 195/1/2 201/1/2
f 200/3/2 194/3/2 201/3/2
f 188/1/2 177/1/2 202/1/2
f 201/1/2 195/1/2 202/1/2
f 195/1/2 188/1/2 202/1/2
f 203/2/2 204/2/2 205/2/2
f 205/2/2 204/2/2 206/2/2
f 207/1/2 208/1/2 211/1/2
f 211/1/2 208/1/2 212/1/2
f 209/1/2 210/1/2 213/1/2
f 213/1/2 210/1/2 214/1/2
f 215/1/2 216/1/2 219/1/2
f 219/1/2 216/1/2 220/1/2
f 217/1/2 218/1/2 221/1/2
f 221/1/2 218/1/2 222/1/2
f 223/1/2 224/1/2 225/1/2
f 225/1/2 224/1/2 226/1/2
f 229/3/3 228/3/3 227/3/3
f 230/3/3 228/3/3 229/3/3
f 234/3/3 232/3/3 231/3/3
f 235/3/3 232/3/3 234/3/3
f 236/3/3 232/3/3 235/3/3
f 239/3/3 238/3/3 237/3/3
f 240/3/3 238/3/3 239/3/3
f 241/3/3 234/3/3 233/3/3
f 241/3/3 235/3/3 234/3/3
f 242/3/3 235/3/3 241/3/3
f 243/3/3 235/3/3 242/3/3
f 245/3/3 244/3/3 243/3/3
f 245/3/3 243/3/3 242/3/3
f 246/3/3 244/3/3 245/3/3
f 249/3/3 248/3/3 247/3/3
f 250/3/3 248/3/3 249/3/3
f 253/3/3 252/3/3 251/3/3
f 254/3/3 252/3/3 253/3/3
f 257/4/3 256/4/3 255/4/3
f 258/4/3 256/4/3 257/4/3
f 261/3/3 260/3/3 259/3/3
f 262/3/3 260/3/3 261/3/3
f 263/3/3 261/3/3 259/3/3
f 265/3/3 263/3/3 259/3/3
f 265/3/3 264/3/3 263/3/3
f 266/3/3 264/3/3 265/3/3
f 269/3/3 268/3/3 267/3/3
f 270/3/3 268/3/3 269/3/3
f 273/3/3 272/3/3 271/3/3
f 274/3/3 272/3/3 273/3/3
f 277/1/3 276/1/3 275/1/3
f 278/1/3 276/1/3 277/1/3
f 281/1/3 280/1/3 279/1/3
f 282/1/3 280/1/3 281/1/3
f 285/1/3 284/1/3 283/1/3
f 286/1/3 284/1/3 285/1/3
f 289/1/3 288/1/3 287/1/3
f 290/1/3 288/1/3 289/1/3
f 293/1/3 292/1/3 291/1/3
f 294/1/3 292/1/3 293/1/3
f 295/1/3 292/1/3 294/1/3
f 298/1/3 297/1/3 296/1/3
f 299/1/3 297/1/3 298/1/3
f 300/1/3 297/1/3 299/1/3
f 303/1/3 302/1/3 301/1/3
f 304/1/3 302/1/3 303/1/3
f 307/1/3 306/1/3 305/1/3
f 308/1/3 306/1/3 307/1/3
f 311/2/3 310/2/3 309/2/3
f 312/2/3 310/2/3 311/2/3
f 315/2/3 314/2/3 313/2/3
f 316/2/3 314/2/3 315/2/3
f 319/2/3 317/2/3 316/2/3
f 320/2/3 317/2/3 319/2/3
f 321/2/3 319/2/3 318/2/3
f 322/2/3 319/2/3 321/2/3
f 325/2/3 324/2/3 323/2/3
f 326/2/3 324/2/3 325/2/3
f 329/2/3 328/2/3 327/2/3
f 330/2/3 328/2/3 329/2/3
f 331/1/4 332/1/4 333/1/4
f 333/1/4 332/1/4 334/1/4
f 335/1/4 336/1/4 337/1/4
f 337/1/4 336/1/4 338/1/4
f 339/3/4 340/3/4 341/3/4
f 341/3/4 340/3/4 342/3/4
f 343/4/4 344/4/4 345/4/4
f 345/4/4 344/4/4 346/4/4
f 347/3/4 348/3/4 349/3/4
f 349/3/4 348/3/4 350/3/4
f 351/3/4 352/3/4 353/3/4
f 353/3/4 352/3/4 354/3/4
f 355/1/4 356/1/4 357/1/4
f 357/1/4 356/1/4 358/1/4
f 358/1/4 356/1/4 359/1/4
f 360/1/4 361/1/4 362/1/4
f 362/1/4 361/1/4 363/1/4
f 363/1/4 361/1/4 364/1/4
f 365/1/4 366/1/4 367/1/4
f 367/1/4 366/1/4 368/1/4
f 369/1/4 370/1/4 371/1/4
f 371/1/4 370/1/4 372/1/4
f 373/1/4 374/1/4 375/1/4
f 375/1/4 374/1/4 376/1/4
f 377/1/4 378/1/4 379/1/4
f 379/1/4 378/1/4 380/1/4
f 381/1/4 382/1/4 383/1/4
f 383/1/4 382/1/4 384/1/4
f 381/1/4 383/1/4 385/1/4
f 381/1/4 385/1/4 386/1/4
f 381/1/4 386/1/4 388/1/4
f 386/1/4 387/1/4 388/1/4
f 388/1/4 387/1/4 389/1/4
f 390/1/4 391/1/4 392/1/4
f 392/1/4 391/1/4 393/1/4
f 390/1/4 392/1/4 394/1/4
f 394/1/4 392/1/4 395/1/4
f 393/1/4 391/1/4 396/1/4
f 396/1/4 391/1/4 397/1/4
f 394/2/4 395/2/4 398/2/4
f 395/2/4 396/2/4 398/2/4
f 396/2/4 397/2/4 398/2/4
f 398/2/4 397/2/4 399/2/4
f 400/1/4 401/1/4 402/1/4
f 402/1/4 401/1/4 403/1/4
f 403/1/4 401/1/4 404/1/4
f 400/1/4 402/1/4 405/1/4
f 403/1/4 404/1/4 406/1/4
f 406/1/4 404/1/4 407/1/4
f 400/1/4 405/1/4 408/1/4
f 405/1/4 406/1/4 408/1/4
f 406/1/4 407/1/4 408/1/4
f 408/1/4 407/1/4 409/1/4
f 410/2/4 411/2/4 412/2/4
f 412/2/4 411/2/4 413/2/4
f 414/2/4 415/2/4 416/2/4
f 416/2/4 415/2/4 417/2/4
f 418/2/4 419/2/4 420/2/4
f 420/2/4 419/2/4 421/2/4
f 422/2/4 423/2/4 424/2/4
f 424/2/4 423/2/4 425/2/4
f 426/2/4 427/2/4 428/2/4
f 428/2/4 427/2/4 429/2/4
f 428/1/4 429/1/4 431/1/4
f 429/2/4 430/2/4 432/2/4
f 431/1/4 429/1/4 432/1/4
f 432/2/4 430/2/4 433/2/4
f 431/2/4 432/2/4 434/2/4
f 434/2/4 432/2/4 435/2/4
f 439/3/5 437/3/5 436/3/5
f 440/3/5 437/3/5 439/3/5
f 442/3/5 439/3/5 438/3/5
f 442/3/5 441/3/5 440/3/5
f 442/3/5 440/3/5 439/3/5
f 443/3/5 441/3/5 442/3/5
f 444/1/5 443/1/5 442/1/5
f 445/1/5 443/1/5 444/1/5
f 448/3/5 447/3/5 446/3/5
f 449/3/5 447/3/5 448/3/5
f 453/1/5 451/1/5 450/1/5
f 453/2/5 452/2/5 451/2/5
f 454/2/5 452/2/5 453/2/5
f 455/1/5 453/1/5 450/1/5
f 455/4/5 454/4/5 453/4/5
f 456/4/5 454/4/5 455/4/5
f 457/1/5 455/1/5 450/1/5
f 458/2/5 456/2/5 455/2/5
f 458/1/5 455/1/5 457/1/5
f 459/2/5 456/2/5 458/2/5
f 464/3/5 461/3/5 460/3/5
f 465/3/5 461/3/5 464/3/5
f 466/3/5 463/3/5 462/3/5
f 467/3/5 463/3/5 466/3/5
f 468/3/5 464/3/5 460/3/5
f 469/3/5 464/3/5 468/3/5
f 470/3/5 463/3/5 467/3/5
f 471/3/5 463/3/5 470/3/5
f 477/1/5 473/1/5 472/1/5
f 478/1/5 475/1/5 474/1/5
f 480/1/5 477/1/5 476/1/5
f 481/1/5 473/1/5 477/1/5
f 481/1/5 477/1/5 480/1/5
f 482/1/5 479/1/5 478/1/5
f 482/1/5 478/1/5 474/1/5
f 483/1/5 479/1/5 482/1/5
f 488/1/5 485/1/5 484/1/5
f 489/1/5 485/1/5 488/1/5
f 490/1/5 487/1/5 486/1/5
f 491/1/5 487/1/5 490/1/5
f 492/1/5 485/1/5 489/1/5
f 493/1/5 485/1/5 492/1/5
f 494/1/5 490/1/5 486/1/5
f 495/1/5 490/1/5 494/1/5
f 498/1/5 497/1/5 496/1/5
f 499/1/5 497/1/5 498/1/5
f 502/3/5 501/3/5 500/3/5
f 503/3/5 501/3/5 502/3/5
f 510/1/5 506/1/5 505/1/5
f 510/1/5 505/1/5 504/1/5
f 511/1/5 509/1/5 508/1/5
f 511/1/5 508/1/5 507/1/5
f 512/1/5 510/1/5 504/1/5
f 513/1/5 510/1/5 512/1/5
f 514/1/5 510/1/5 513/1/5
f 515/1/5 509/1/5 511/1/5
f 516/1/5 509/1/5 515/1/5
f 517/1/5 509/1/5 516/1/5
f 521/1/5 519/1/5 518/1/5
f 522/1/5 519/1/5 521/1/5
f 525/2/5 521/2/5 520/2/5
f 526/2/5 523/2/5 522/2/5
f 528/2/5 525/2/5 524/2/5
f 529/2/5 521/2/5 525/2/5
f 529/2/5 525/2/5 528/2/5
f 530/2/5 527/2/5 526/2/5
f 530/2/5 526/2/5 522/2/5
f 531/2/5 527/2/5 530/2/5
f 532/2/5 521/2/5 529/2/5
f 533/1/5 522/1/5 521/1/5
f 533/2/5 521/2/5 532/2/5
f 534/2/5 530/2/5 522/2/5
f 534/1/5 522/1/5 533/1/5
f 535/2/5 530/2/5 534/2/5
f 538/2/5 537/2/5 536/2/5
f 539/2/5 537/2/5 538/2/5
f 540/1/6 541/1/6 545/1/6
f 542/1/6 543/1/6 546/1/6
f 544/1/6 545/1/6 548/1/6
f 545/1/6 541/1/6 549/1/6
f 548/1/6 545/1/6 549/1/6
f 546/1/6 547/1/6 550/1/6
f 542/1/6 546/1/6 550/1/6
f 550/1/6 547/1/6 551/1/6
f 552/1/6 553/1/6 556/1/6
f 556/1/6 553/1/6 557/1/6
f 554/1/6 555/1/6 558/1/6
f 558/1/6 555/1/6 559/1/6
f 557/1/6 553/1/6 560/1/6
f 560/1/6 553/1/6 561/1/6
f 554/1/6 558/1/6 562/1/6
f 562/1/6 558/1/6 563/1/6
f 564/1/6 565/1/6 568/1/6
f 566/1/6 567/1/6 569/1/6
f 564/1/6 568/1/6 570/1/6
f 570/1/6 568/1/6 571/1/6
f 569/1/6 567/1/6 572/1/6
f 572/1/6 567/1/6 573/1/6
f 574/1/6 575/1/6 577/1/6
f 577/1/6 575/1/6 578/1/6
f 576/2/6 577/2/6 581/2/6
f 578/2/6 579/2/6 582/2/6
f 580/2/6 581/2/6 584/2/6
f 581/2/6 577/2/6 585/2/6
f 584/2/6 581/2/6 585/2/6
f 582/2/6 583/2/6 586/2/6
f 578/2/6 582/2/6 586/2/6
f 586/2/6 583/2/6 587/2/6
f 585/2/6 577/2/6 588/2/6
f 588/2/6 577/2/6 589/2/6
f 578/2/6 586/2/6 590/2/6
f 590/2/6 586/2/6 591/2/6
f 592/1/6 593/1/6 594/1/6
f 594/1/6 593/1/6 595/1/6
f 595/1/6 593/1/6 596/1/6
f 596/1/6 593/1/6 597/1/6
f 598/3/6 599/3/6 601/3/6
f 601/3/6 599/3/6 602/3/6
f 602/3/6 599/3/6 603/3/6
f 603/3/6 599/3/6 604/3/6
f 600/3/6 601/3/6 606/3/6
f 601/3/6 602/3/6 606/3/6
f 606/3/6 602/3/6 607/3/6
f 604/3/6 605/3/6 608/3/6
f 603/3/6 604/3/6 608/3/6
f 608/3/6 605/3/6 609/3/6
f 600/3/6 606/3/6 610/3/6
f 609/3/6 605/3/6 613/3/6
f 610/3/6 611/3/6 614/3/6
f 600/3/6 610/3/6 614/3/6
f 614/3/6 611/3/6 615/3/6
f 612/3/6 613/3/6 616/3/6
f 613/3/6 605/3/6 617/3/6
f 616/3/6 613/3/6 617/3/6
f 614/1/6 615/1/6 618/1/6
f 615/1/6 616/1/6 618/1/6
f 616/1/6 617/1/6 618/1/6
f 618/1/6 617/1/6 619/1/6
f 619/1/6 617/1/6 620/1/6
f 620/1/6 617/1/6 621/1/6
f 621/1/6 617/1/6 622/1/6
f 619/1/6 620/1/6 623/1/6
f 620/2/6 621/2/6 623/2/6
f 623/2/6 621/2/6 624/2/6
f 619/1/6 623/1/6 625/1/6
f 623/4/6 624/4/6 625/4/6
f 625/4/6 624/4/6 626/4/6
f 619/1/6 625/1/6 627/1/6
f 625/2/6 626/2/6 628/2/6
f 627/1/6 625/1/6 628/1/6
f 628/2/6 626/2/6 629/2/6
f 630/3/6 631/3/6 633/3/6
f 633/3/6 631/3/6 634/3/6
f 632/3/6 633/3/6 636/3/6
f 634/3/6 635/3/6 636/3/6
f 633/3/6 634/3/6 636/3/6
f 636/3/6 635/3/6 637/3/6
f 632/3/6 636/3/6 638/3/6
f 638/3/6 636/3/6 639/3/6
f 639/3/6 636/3/6 640/3/6
f 637/3/6 635/3/6 641/3/6
f 641/3/6 635/3/6 642/3/6
f 642/3/6 635/3/6 643/3/6
f 639/3/6 640/3/6 644/3/6
f 641/3/6 642/3/6 644/3/6
f 640/3/6 641/3/6 644/3/6
f 644/3/6 642/3/6 645/3/6
f 646/2/6 647/2/6 648/2/6
f 648/2/6 647/2/6 649/2/6
f 650/4/6 651/4/6 652/4/6
f 652/4/6 651/4/6 653/4/6
f 654/2/6 655/2/6 656/2/6
f 656/2/6 655/2/6 657/2/6
f 658/2/6 659/2/6 660/2/6
f 660/2/6 659/2/6 661/2/6
